<svg xmlns="http://www.w3.org/2000/svg" xmlns:xlink="http://www.w3.org/1999/xlink" id="Layer_1" x="0px" y="0px" viewBox="0 0 1100 861" style="enable-background:new 0 0 1100 861;" xml:space="preserve"><style type="text/css">	.st0{fill:none;}	.st1{opacity:0.7;}	.st2{fill:#2B4878;fill-opacity:0;}	.st3{fill-rule:evenodd;clip-rule:evenodd;fill:#2B4878;}</style><rect y="0" class="st0" width="1100" height="861"></rect><g class="st1">	<rect y="0" class="st2" width="1100" height="861"></rect>	<path class="st3" d="M282.6,78.1h-23.3v-4h48.5c1.5,4.3,3.1,8.7,4.6,13.2c3.2,9.3,6.3,18.7,9.5,28c3.2,9.3,6.2,18.3,9.3,27.2  c2.8,8.1,5.6,16.3,8.5,24.4c2.3,6.7,4.6,13.4,6.9,20.1c0.3,0.6,0.8,1.2,1.2,1.7c1.6-4.5,3.1-8.6,4.5-12.8  c4.6-13.6,9.1-27.2,13.7-40.7c3-8.9,6.2-17.8,9.3-26.8s6.2-18.3,9.4-27.6c0.8-2.3,1.9-4.6,2.9-6.9h46.5c1.8,0.9,1.8,2.3,1.1,4.1  h-22.6l-0.5,0.5c-0.1,0.1-0.2,0.2-0.2,0.4c0,0.5,0,1.1,0,1.7c0,47.6,0,95.3,0,143.5h11.9h11.7v3c-3.3,0.6-65.2,0.7-70.1,0v-3h22.7  l0.6-0.6c0,0,0.2-0.2,0.2-0.3c0-46.7,0-93.4,0-140.1c0-0.2-0.3-0.4-0.5-0.9c-2.9,8.6-5.9,17-8.7,25.4  c-5.7,16.7-11.4,33.4-17.1,50.1c-2.5,7.1-5.1,14.1-7.3,21.2c-5.5,16-11.1,32.1-16.5,48.1c-0.3,1-0.6,0.4-0.6,0.4  c-1-1.7-1.8-3.6-2.4-5.5c-4.2-12.2-8.4-24.4-12.6-36.6c-2.5-7.1-5.1-14.1-7.6-21.2c-2.5-7.1-4.6-14-7-20.9  c-4.5-13.3-9.1-26.6-13.7-39.8c-2.3-6.7-4.8-13.3-7.3-20.3v140.9h23.4v3.3h-51.3l-0.4-2.7c0.4-0.2,0.8-0.4,1.2-0.5h17.4h4.3  C283,220.9,283.3,87,282.6,78.1L282.6,78.1L282.6,78.1L282.6,78.1L282.6,78.1L282.6,78.1L282.6,78.1L282.6,78.1L282.6,78.1  L282.6,78.1L282.6,78.1L282.6,78.1L282.6,78.1L282.6,78.1L282.6,78.1L282.6,78.1L282.6,78.1L282.6,78.1L282.6,78.1L282.6,78.1  L282.6,78.1L282.6,78.1L282.6,78.1L282.6,78.1L282.6,78.1L282.6,78.1L282.6,78.1L282.6,78.1z M80,610v-2.9c0,0,0.3-0.4,0.4-0.4  l22.8-0.4c0.6-3.3,0.8-139.8,0.2-145.8H81.6c-2-2.1-2-2.1-0.5-4.3h68.8c0.9,1.3,0.5,3.1-0.7,4h-22c-0.7,3.4-1,61.1-0.4,68.4  c3.2,0.6,64.2,0.8,70,0v-68.4h-23.2l-0.4-3.7c0.4-0.3,0.9-0.4,1.3-0.6h68.2l0.3,4.1c-8,0.3-15.7,0-23.6,0v146h23.4v3.3h-69.1  c-0.2-0.4-0.3-0.9-0.4-1.4c0-0.6,0.1-1.2,0.2-1.8h22.9c0.8-3.3,1.1-63.9,0.4-72.6c-3.2-0.6-63.8-0.8-70.1-0.2v72.6h23.2l0.5,3  c-0.4,0.2-0.8,0.4-1.2,0.5c-1.3,0-2.5,0-3.7,0H80V610L80,610L80,610L80,610L80,610L80,610L80,610L80,610L80,610L80,610L80,610  L80,610L80,610L80,610L80,610L80,610L80,610L80,610L80,610L80,610L80,610L80,610L80,610L80,610L80,610L80,610L80,610z M780.8,335.1  c0.4,0,0.7,0.4,0.9,0.4c8.2,0.3,16.3,0.1,24.5-0.7c6.9-0.6,13-4.8,16.1-11c3.2-6.2,3.3-12.9,4.1-19.5c0.1-2.8-0.2-5.6-0.7-8.3  c-0.2-3.2-0.8-6.4-1.9-9.4c-1.6-5.5-5.1-10.1-9.9-13.2c-4.4-2.4-9.3-3.7-14.4-3.9c-5.5-0.4-11,0-16.6,0c-0.8,0.1-1.6,0.4-2.3,0.8  V335.1L780.8,335.1L780.8,335.1L780.8,335.1L780.8,335.1L780.8,335.1L780.8,335.1L780.8,335.1L780.8,335.1L780.8,335.1L780.8,335.1  L780.8,335.1L780.8,335.1L780.8,335.1L780.8,335.1L780.8,335.1L780.8,335.1L780.8,335.1L780.8,335.1L780.8,335.1L780.8,335.1  L780.8,335.1L780.8,335.1L780.8,335.1L780.8,335.1L780.8,335.1L780.8,335.1L780.8,335.1z M291.4,533.6c-0.3,9.5,0.2,19.1,1.6,28.5  c0.8,6.2,2.3,12.4,4.3,18.3c3.7,9.5,8.6,17.8,17.8,23.2c5,3,10.7,4.9,16.5,5.4c7.2,0.7,14.4,0.5,21.5-0.6  c7.5-1.3,14.4-4.7,19.9-9.9c5-5,8.8-11.2,11-18c2-5.8,3.5-11.7,4.3-17.8c0.9-5.5,1.4-11.1,1.6-16.6c-0.3-3.5-0.1-7,0.7-10.4  c0.2-1.1,0.2-2.2,0-3.3c0-1.2-0.5-2.5-0.6-3.7c0-5.5-0.2-11-0.7-16.4c-0.7-4.4-1.1-8.8-1.8-13.2c-1.6-9.8-5.5-19.1-11.5-27.1  c-4-5.4-9.3-9.5-15.5-12c-6.1-2.5-12.6-3.7-19.2-3.7c-3,0-6.1,0.5-9.2,0.8c-5.7,0.5-11.2,2.3-16,5.4c-4.4,2.8-8.2,6.3-11.4,10.4  c-4.1,5.6-7.2,12-9,18.8c-1.3,4.7-2.2,9.5-2.8,14.3c-1,6.4-1.5,12.8-1.5,19.2C291.4,528,291.4,530.8,291.4,533.6L291.4,533.6  L291.4,533.6L291.4,533.6L291.4,533.6L291.4,533.6L291.4,533.6L291.4,533.6L291.4,533.6L291.4,533.6L291.4,533.6L291.4,533.6  L291.4,533.6L291.4,533.6L291.4,533.6L291.4,533.6L291.4,533.6L291.4,533.6L291.4,533.6L291.4,533.6L291.4,533.6L291.4,533.6  L291.4,533.6L291.4,533.6L291.4,533.6L291.4,533.6L291.4,533.6z M585.4,460.5v-4.3h123.4c-0.6,13.1,0,25.5-0.4,37.8  c-2.6,0.2-2.5,0.2-3.4-1.8c-2-4.8-3.7-9.7-6.1-14.2c-5.2-10.2-15.5-16.8-26.9-17.4c-12.9,0-25.7,0-38.7,0h-1.6  c-0.7,3.2-0.9,57.5-0.3,65.1c1,0,2.1,0,3.2,0c4.4,0,8.8,0,13.2,0c3.1-0.2,6.1-0.6,9.1-1.4c6.6-1.9,11.9-7,14-13.5  c1.8-4.7,3.3-9.4,4.5-14.3c0.5-1.6,1.2-2.5,3-2.1c0.7,3.2,0.9,58.9,0.3,66.7c-0.9,0.6-2.2,0.4-2.8-0.6c-0.2-0.3-0.3-0.6-0.3-0.9  c-1-3.5-1.7-7-2.6-10.5c-1.2-4.9-3.7-9.4-7.1-13.2c-3.3-3.4-7.7-5.6-12.5-6.2c-7.3-1.1-14.3,0-21.4-0.7c-0.7,3.3-1,69.6-0.3,77.2  c1.1,0,2.1,0,3.2,0c12.2,0,24.3,0,36.6,0c9.2,0.1,18-3.1,25-9.1c7.8-6.8,13.3-15.9,15.7-26.1c0.7-2.8,1.4-5.6,2.2-8.7h2.7v47.2  H585.5v-3.2h22.8l0.5-0.5c0.1-0.1,0.2-0.2,0.2-0.4c0-0.5,0-1.1,0-1.7c0-47.6,0-95.3,0-143.3c-3.9-0.4-7.9-0.5-11.9-0.3  C593.4,460.4,589.6,460.5,585.4,460.5L585.4,460.5L585.4,460.5L585.4,460.5L585.4,460.5L585.4,460.5L585.4,460.5L585.4,460.5  L585.4,460.5L585.4,460.5L585.4,460.5L585.4,460.5L585.4,460.5L585.4,460.5L585.4,460.5L585.4,460.5L585.4,460.5L585.4,460.5  L585.4,460.5L585.4,460.5L585.4,460.5L585.4,460.5L585.4,460.5L585.4,460.5z M531.7,266.2v3.7h-20.6l-35.5,59l53.4,87.4h18.3  l-0.9,3.2H482l-0.4-2.7c0.5-0.2,0.9-0.5,1.2-0.5H502l-41.3-67.8c-13.7,22.7-26.9,44.9-40.3,67.7h20.5v3.3h-45.6  c-0.1-0.6-0.2-1.2-0.2-1.8c0.1-0.5,0.2-0.9,0.3-1.4h19.8c5.3-7.5,9.6-15.7,14.7-23.5c5.1-7.8,9.2-15.6,13.9-23.5  c4.7-7.8,9.6-15.8,14.7-24c-0.3-1.3-0.7-2.5-1.3-3.7c-7.3-12.2-15-24.2-22.4-36.4c-6.2-10.2-12.1-20.4-18.3-30.6  c-1-1.6-2.3-3.2-3.7-4.8h-17.4l-0.2-4h64.4v4h-19.7c11,18.7,22,36.4,33.3,55c11.4-18.3,22.4-36.4,33.5-55h-19.5l-0.3-3.7  C487.7,265.7,523.6,265.5,531.7,266.2L531.7,266.2L531.7,266.2L531.7,266.2L531.7,266.2L531.7,266.2L531.7,266.2L531.7,266.2  L531.7,266.2L531.7,266.2L531.7,266.2L531.7,266.2L531.7,266.2L531.7,266.2L531.7,266.2L531.7,266.2L531.7,266.2L531.7,266.2  L531.7,266.2L531.7,266.2L531.7,266.2L531.7,266.2L531.7,266.2z M79.3,181.1h2.6c1.3,4.5,2.4,9,4,13.3c2.3,6.7,5.8,13,10.2,18.6  c5.7,6.9,13.7,11.6,22.6,13.2c2.6,0.4,5.3,0.7,7.9,0.7c2.2,0,4.5-0.6,6.7,0.7c0.4,0.2,1.1,0,1.6,0c1.5-0.2,3-0.5,4.5-0.6  c12.6-0.9,22.5-6.1,28.4-17.7c3.1-6,4.4-12.8,3.7-19.5c-0.5-5.2-2.5-10.1-5.7-14.1c-4.2-5.2-9.8-9.2-16.1-11.6  c-7.6-3.1-15.6-4.9-23.4-7.5c-4.5-1.5-9.1-2.7-13.5-4.3c-7.3-2.5-14-6.4-19.9-11.2c-3.7-3.3-6.4-7.5-8-12.2  c-1.4-3.2-1.9-6.8-1.7-10.3c0.1-1.4,0.1-2.8,0-4.3c-0.4-8.9,2.3-17.6,7.7-24.8c4.9-6.9,11.7-12.3,19.6-15.4  c8.7-3.3,18-4.4,27.3-3.3c5.3,0.6,10.4,2.1,15.1,4.5c2.6,1.2,5.5,1.9,8.2,3.1c2.2,0.9,4.7,0.8,6.7-0.4l2.9-4l3.3,0.8V114l-3.7-0.4  c-0.8-6.9-3-13.6-6.6-19.6c-5-9.5-13.8-16.3-24.2-18.8c-4.9-1.4-10-1.5-15-0.4c-3.3,0.9-6.7,1.5-10.1,2.4c-4.1,1.1-7.9,3.3-11,6.2  c-3.7,3.3-6.4,7.5-7.6,12.3c-2.2,7.8-0.6,16.2,4.2,22.7c2.8,3.5,6.4,6.3,10.6,8.1c5.2,2.4,10.5,4.4,15.9,6.2  c7.3,2.6,15.1,4.8,22.6,7.3c3.4,1.1,6.9,2,10.4,3.2c6.8,2.1,13,5.6,18.3,10.2c5,4.4,8.4,10.3,9.8,16.8c5.4,24.2-7.9,48.6-31.1,57.1  c-4.6,1.6-9.3,2.9-14.1,3.7c-6.3,0.9-12.6,1-18.9,0.5c-5.7-0.3-11.3-1.3-16.7-3.2c-4.1-1.4-8.2-2.7-12.3-3.7  c-2.7-0.5-5.3-0.7-8-0.8l-4,4.4h-2.8C78.7,212.4,78.6,196.7,79.3,181.1L79.3,181.1L79.3,181.1L79.3,181.1L79.3,181.1L79.3,181.1  L79.3,181.1L79.3,181.1L79.3,181.1L79.3,181.1L79.3,181.1L79.3,181.1L79.3,181.1L79.3,181.1L79.3,181.1L79.3,181.1L79.3,181.1  L79.3,181.1L79.3,181.1L79.3,181.1L79.3,181.1L79.3,181.1z M982,461.4c4.8-1.6,4.8-1.6,7.3-5.1h2.9v39.4l-2.5,0.4  c-0.3-0.4-0.6-0.6-0.6-0.8c-1.7-11.1-6.8-21.3-14.7-29.3c-5.2-4.7-11.6-7.8-18.6-8.9c-2.6-0.5-5.3-0.7-7.9-0.7  c-8.6,0.1-16.9,2.9-23.9,7.8c-6,4.3-9.7,11.2-9.8,18.7c-0.4,3.5-0.2,7.1,0.8,10.4c1.8,4.6,4.8,8.6,8.7,11.6  c6,4.1,12.6,7.2,19.6,9.1c8.3,2.8,16.7,5.4,25,8l9.9,3.1c5,1.5,9.7,3.8,13.9,6.8c7.8,5.2,13,13.4,14.7,22.6  c2.3,13.5-1.2,27.4-9.5,38.3c-4.4,5.8-10.1,10.6-16.6,14c-6.1,3.3-12.9,5.4-19.8,6.1c-4.5,0.4-9,0.6-13.4,0.6  c-7-0.1-13.9-1-20.6-2.9c-3.5-0.8-7-1.8-10.4-3.2c-3.9-1.5-8.2-1.9-12.3-1.4c-1.6,1.8-2.2,5.1-5.8,4c-0.7-3-1-37.9-0.3-46.2  c0.9-0.6,2.2-0.4,2.8,0.5c0.2,0.3,0.3,0.6,0.3,1c0.7,2.4,1.1,4.9,1.8,7.3c2.4,10,7.5,19.1,14.7,26.4c5.3,5,12,8.3,19.2,9.6  c8,1.1,16,1.4,24,0.6c6-0.5,11.8-2.8,16.4-6.7c7-5.6,11.5-13.8,12.4-22.8c0.5-4.8,0.1-9.7-1.2-14.3c-0.6-2.3-1.8-4.4-3.3-6.2  c-3.9-5.2-9.1-9.3-15-11.9c-10-4.4-20.6-6.7-30.9-10c-5.5-1.6-10.9-3.7-16-6.2c-5.2-2.5-9.9-5.9-13.9-10c-4-4.5-6.6-10.1-7.3-16  c-0.6-2.7-0.8-5.5-0.7-8.3c0.3-21.5,16.2-39.7,37.4-43c5.8-0.9,11.8-1.1,17.7-0.6c4.7,0.5,9.3,1.7,13.6,3.7  C974.2,458.2,978.1,459.9,982,461.4L982,461.4L982,461.4L982,461.4L982,461.4L982,461.4L982,461.4L982,461.4L982,461.4L982,461.4  L982,461.4L982,461.4L982,461.4L982,461.4L982,461.4L982,461.4L982,461.4L982,461.4L982,461.4L982,461.4L982,461.4z M569.1,456.4  v39.5h-3c-1.5-5.7-3.7-11.1-6.4-16.3c-3.5-7.1-9.2-12.9-16.3-16.4c-3.7-1.7-7.7-2.6-11.7-2.7c-5.5,0-11,0-16.6,0v145.8  c3.9,0.4,7.8,0.5,11.7,0.3c3.7,0,7.6,0,11.7,0l0.2,2.8c-0.9,0.9-61.5,1.1-69.4,0.4v-3.1h23.3V460.5c-6.7,0-13.2-0.5-19.6,0  c-5.7,0.5-11.2,2.8-15.5,6.5c-5.7,5.2-10.1,11.6-12.9,18.8c-1.4,3-2.2,6.3-3.4,9.8l-2.9,0.5c-0.3-0.4-0.4-0.9-0.5-1.4  c0-11.9,0-23.8,0-35.7c0.1-1,0.3-1.9,0.6-2.9L569.1,456.4L569.1,456.4L569.1,456.4L569.1,456.4L569.1,456.4L569.1,456.4  L569.1,456.4L569.1,456.4L569.1,456.4L569.1,456.4L569.1,456.4L569.1,456.4L569.1,456.4L569.1,456.4L569.1,456.4L569.1,456.4  L569.1,456.4L569.1,456.4L569.1,456.4L569.1,456.4z M918.9,78.2H896c-1.5-2.1-1.5-2.1-0.2-4.1h69.2c0,0.8,0,1.5,0,2.2  c0,0.6-0.1,1.2-0.2,1.8h-22.8l-0.5,0.6c0,0.1,0,0.2,0,0.4c0,0.6,0,1.1,0,1.7c0,47.6,0,95.3,0,143.3c1.1,0,2,0.3,3,0.3  c12,0,24.1,0.3,36.1,0c7.8,0.1,15.5-2.2,22-6.7c5.7-4.2,10.3-9.6,13.6-15.9c3.5-6.7,6.2-13.9,8-21.3h3v47.2H894.8V225l0.2-0.2  c0,0,0.2-0.2,0.3-0.2h23.3C919.3,220.9,919.7,88,918.9,78.2L918.9,78.2L918.9,78.2L918.9,78.2L918.9,78.2L918.9,78.2L918.9,78.2  L918.9,78.2L918.9,78.2L918.9,78.2L918.9,78.2L918.9,78.2L918.9,78.2L918.9,78.2L918.9,78.2L918.9,78.2L918.9,78.2L918.9,78.2  L918.9,78.2z M785.3,606.5h35.9c6.6,0,13.1-1.3,19.2-3.7c2.9-1.2,5.5-2.8,7.8-4.9c8.1-7.3,14-16.6,17-27c0.9-2.7,1.6-5.6,2.5-8.5h3  v46.8l-0.3,0.3c-0.1,0.1-0.2,0.2-0.4,0.2h-1.3H739.4l-0.3-2.7c0.3-0.3,0.4-0.5,0.4-0.5l22.8-0.4c0.6-3.2,0.8-139,0.2-145.9h-23.3  v-4.1h69.2l0.4,3.7c-0.4,0.2-0.9,0.4-1.3,0.5h-22C784.8,463.8,784.6,598.7,785.3,606.5L785.3,606.5L785.3,606.5L785.3,606.5  L785.3,606.5L785.3,606.5L785.3,606.5L785.3,606.5L785.3,606.5L785.3,606.5L785.3,606.5L785.3,606.5L785.3,606.5L785.3,606.5  L785.3,606.5L785.3,606.5L785.3,606.5L785.3,606.5z M829.5,180.2h2.5c0.7,3.2,0.9,40.5,0.3,47c-3.2,0.6-124.9,0.8-131.3,0.2v-3.1  h23.4V78.5c-3.8-0.4-7.7-0.5-11.6-0.3c-3.7,0-7.6,0-11.7,0l-0.3-3.7c1-1,61.9-1.2,69.6-0.5v4h-23.4v145.8c0.9,0.1,1.8,0.2,2.7,0.3  c12,0,24.1,0.3,36.1,0c7.8,0.1,15.5-2.3,22-6.7c5.4-4,9.9-9.1,13.1-15C824.8,195.4,827.7,188,829.5,180.2L829.5,180.2L829.5,180.2  L829.5,180.2L829.5,180.2L829.5,180.2L829.5,180.2L829.5,180.2L829.5,180.2L829.5,180.2L829.5,180.2L829.5,180.2L829.5,180.2  L829.5,180.2L829.5,180.2L829.5,180.2L829.5,180.2z M141.8,265.9v4.2h-23.5v146.1h3.9c11.2,0,22.4,0,33.5,0  c4.9-0.1,9.7-0.8,14.4-2.2c8-2.5,14.8-7.6,19.3-14.7c5.1-7.7,8.9-16.2,11-25.1c0.4-1.7,1.2-2.4,3.4-1.8c0,15.6,0,31.2,0,47.1H72.4  v-3.2h23.4V270.3c-3.7-0.4-7.7,0-11.6,0c-3.9,0-7.6,0-11.8,0l-0.3-3.9c0.6-0.2,1.2-0.3,1.8-0.4h67.8L141.8,265.9L141.8,265.9  L141.8,265.9L141.8,265.9L141.8,265.9L141.8,265.9L141.8,265.9L141.8,265.9L141.8,265.9L141.8,265.9L141.8,265.9L141.8,265.9  L141.8,265.9L141.8,265.9L141.8,265.9L141.8,265.9z M580.6,161.2l-23-60.8l-22.9,60.8H580.6L580.6,161.2L580.6,161.2L580.6,161.2  L580.6,161.2L580.6,161.2L580.6,161.2L580.6,161.2L580.6,161.2L580.6,161.2L580.6,161.2L580.6,161.2L580.6,161.2L580.6,161.2  L580.6,161.2L580.6,161.2z M901,270.1h-19.8l-0.3-3.7c0.9-0.9,58.6-1.1,66-0.5l0.9,2.8c-0.5,1.2-1.6,1.2-2.8,1.2h-18.3l42,74  l7.3-13.7c5.3-9.8,10.7-19.6,16-29.5c1.8-3.3,3.7-6.7,5.3-10l11-20.6h-21l-0.3-3.7c1-1,38.7-1.2,46.5-0.5v3.9H1013  c-0.4,0.5-0.8,1-1.2,1.6c-3.4,6.6-6.8,13.2-10.3,19.8c-4.9,9-9.7,18.1-14.4,27.1L975,340.9l-0.2,0.4c-3.9,4.5-4,9.9-3.9,15.5  c0,18.3,0,36.6,0,54.8v4.5h23.6v3.3h-69.1l-0.4-2.7c0.4-0.2,0.8-0.4,1.2-0.5h17.4h4.9c0-1.4,0.2-2.6,0.2-3.7c0-17.6,0-35.1,0-52.7  c0-3.8-1.1-7.5-3.2-10.7c-2.8-4.8-5.6-9.6-8.4-14.7c-4.6-8-9.2-16-13.7-24c-3-5.2-5.8-10.6-8.8-15.8c-3-5.2-5.9-10.2-8.8-15.2  C904.4,276.5,902.8,273.4,901,270.1L901,270.1L901,270.1L901,270.1L901,270.1L901,270.1L901,270.1L901,270.1L901,270.1L901,270.1  L901,270.1L901,270.1L901,270.1L901,270.1z M587,270.1h-23.6v-4h69.3c0,0.8,0,1.5,0,2.1c0,0.6-0.1,1.2-0.2,1.8h-23.3  c0,1.3-0.3,2.4-0.3,3.4c0,35.8,0,71.6,0,107.4c0,8,1.8,15.8,5.3,23c3.6,7.1,10.2,12.2,18,14c2.6,0.7,5.2,0.9,7.9,0.8  c3.7,0,7.1,0.3,10.6,0c9.5-0.8,18.3-3.2,25.2-10.6c2.5-2.5,4.8-5.1,6.8-8c3.2-5.4,5.3-11.4,6-17.6c0.7-6.3,0.9-12.6,0.7-18.9  c0-29.3,0-58.9,0-88.3v-5.1c-7.9,0-15.6,0-23.6,0v-4h51.3l0.4,3.5c-0.4,0.3-0.8,0.4-1.3,0.5h-22c-0.5,1.5-0.6,3.1-0.4,4.7  c0,33.3,0,66.5,0,99.8c0.2,8.1-1.5,16.2-5.2,23.5c-2,4.2-4.7,8-8,11.3c-7.9,7.2-17.8,11.8-28.5,12.9c-5.3,0.8-10.6,1-16,0.7  c-9.9-0.2-19.7-2.7-28.4-7.3c-8.1-4.7-14.3-12.1-17.5-20.9c-2.4-6.4-3.7-13.2-3.7-20.1c0-33.1,0-66.3,0-99.4  C587,273.8,587,272.2,587,270.1L587,270.1L587,270.1L587,270.1L587,270.1L587,270.1L587,270.1L587,270.1L587,270.1L587,270.1  L587,270.1L587,270.1L587,270.1z M327.2,270.1v-4h51.3c0.4,1.5,0.6,2.8-1.2,4h-21.7c-0.7,1.4-0.9,3.1-0.6,4.6c0,33.3,0,66.5,0,99.8  c0.3,8.1-1.5,16.2-5.2,23.4c-2.2,4.2-4.9,8.1-8.2,11.6c-6.5,6.2-14.7,10.4-23.6,11.9c-6.7,1.4-13.6,1.9-20.4,1.6  c-9.3-0.3-18.5-2.5-27-6.5c-9.1-4.6-16-12.6-19.2-22.2c-2.3-6.3-3.4-13-3.4-19.7c0-33.1,0-66.3,0-99.4c0-1.5,0-3.1,0-5.1  c-7.9,0-15.6,0-23.6,0v-4h69.3c0,0.8,0,1.5,0,2.2c0,0.6-0.1,1.2-0.2,1.8h-23.3c0,1.3-0.3,2.4-0.3,3.4c0,35.8,0,71.6,0,107.4  c0,7.6,1.6,15.1,4.7,22c3.4,7.7,10.3,13.3,18.5,15.1c2.9,0.7,5.8,1,8.8,0.8c5.5,0.4,11,0.1,16.4-0.9c6.5-1.1,12.6-4,17.4-8.5  c3.1-3,6-6.3,8.4-9.9c3-5,4.9-10.6,5.6-16.5c1-9.3,1.2-18.6,0.7-27.8c0-26.6,0-53.2,0-79.8v-5.1C343,270,335.2,270.2,327.2,270.1  L327.2,270.1L327.2,270.1L327.2,270.1L327.2,270.1L327.2,270.1L327.2,270.1L327.2,270.1L327.2,270.1L327.2,270.1L327.2,270.1  L327.2,270.1z M595.4,773.1h-3.7c-0.2-0.4-0.4-0.7-0.5-1.1c-3.3-9-6.6-18-9.9-27c-2.4-6.7-4.7-13.4-7.1-20  c-3.5-10-7.1-19.9-10.7-29.9c-0.3-0.6-0.6-1.1-1-1.6c-3.1-0.4-6.4,0.2-9.8-0.4c0.4-0.8,0.4-1.2,0.5-1.2c11.6-0.5,23.1-0.4,34.7,0.3  c-0.8,0.5-1.2,1.1-1.7,1.1c-3.4,0-6.7,0-10.5,0l22.7,63.8l14.7-40.3l-8.5-23.5c-3.3-0.3-6.2,0-10-0.4c1.2-0.9,1.5-1.4,1.9-1.4  c10.6,0,21.2,0,31.8,0c0.3,0,0.7,0.3,1.4,0.7c-2.1,1.6-4.2,0.8-6.2,0.9c-1.9,0.1-3.9,0-6.1,0c1.9,5.5,3.7,10.7,5.4,15.8  c2.9,8.2,6,16.5,9,24.7c2.7,7.6,5.4,15.2,8.3,23.4l23.1-63.8c-4.1-0.2-7.8,0-12.3-0.2c0.8-0.9,1.2-1.5,1.5-1.5c7.6,0,15.3,0,22.9,0  c0.2,0,0.4,0.3,1,0.7c-0.6,0.4-1.1,0.9-1.6,0.9c-2.7,0-5.4,0-8.2,0c-1,2.2-2.1,4.3-2.9,6.5c-2.9,8.1-5.7,16.3-8.6,24.4  c-3.7,10.4-7.7,20.8-11.5,31.3c-1.9,5.2-3.7,10.5-5.5,15.8c0,0.5-0.4,1-0.8,1.7l-3.7,0.2l-19-52.9L595.4,773.1L595.4,773.1  L595.4,773.1L595.4,773.1L595.4,773.1L595.4,773.1L595.4,773.1L595.4,773.1L595.4,773.1L595.4,773.1L595.4,773.1z M353.5,692  c0.4-0.2,0.9-0.4,1.4-0.5c11.8-0.5,23.7-0.3,35.5,0.8c-0.9,0.4-1.4,0.9-1.9,1c-2.5,0-5.1,0-7.7,0c-1,0-1.9,0.2-2.6,0.3l-0.5,0.5  c-0.1,0.1-0.2,0.2-0.2,0.4c-0.1,0.4-0.2,0.8-0.2,1.2c0,11.2,0,22.3,0,33.5c12.1,0.7,24.2,0.8,36.3,0.3v-36.2h-6  c-1.9,0.1-3.8,0.1-5.6,0v-1c0.5-0.3,1-0.5,1.6-0.6h33c0.7,0,1.3,0.4,1.7,0.8c-3.7,1.7-7.9,0.2-12,1.3c-0.3,0.7-0.5,1.5-0.6,2.3  c0,24.1,0,48.1,0,72.2c0,0.4,0.1,0.9,0.3,1.3c4.1,0.8,8.3-0.4,12.4,1.4c-0.5,0.3-1.1,0.5-1.6,0.6h-33c-0.6-0.1-1.3-0.4-1.7-0.8  c3.7-1.6,7.7-0.3,11.4-1.1c0.6-3.3,0.7-33,0-37.7h-35.5c-0.9,12.6-1,25.2-0.4,37.7c4.1,0.7,8.3-0.2,13.1,0.6  c-0.9,0.7-1.2,1.3-1.6,1.3c-11.5,0-22.9,0-34.4,0c-0.3,0-0.7-0.3-1.5-0.8c0.9-0.4,1.4-0.9,2-0.9c3.3,0,6.5,0,9.6,0l0.4-0.4  c0.1-0.1,0.2-0.2,0.2-0.3c0-0.7,0-1.4,0-2.1c0-24.3,0-48.7,0-73.3c-4-0.4-8,0-11.8-0.3L353.5,692L353.5,692L353.5,692L353.5,692  L353.5,692L353.5,692L353.5,692L353.5,692L353.5,692L353.5,692z M968.7,769.6c6.8,0.4,13.7,0.1,20.4-0.8c4.8-1,9.2-3.5,12.3-7.3  c5.1-6.4,8.1-14.1,8.5-22.3c0.9-8.3,0.3-16.6-1.6-24.7c-2-9-8.5-16.2-17.2-19.3c-7.3-2.1-15-2.7-22.5-1.8V769.6L968.7,769.6  L968.7,769.6L968.7,769.6L968.7,769.6L968.7,769.6L968.7,769.6L968.7,769.6L968.7,769.6L968.7,769.6L968.7,769.6z M816.5,727.1  c1-0.5,1.9-1.1,2.9-1.5c2.1-0.9,3.7-2.7,4.3-4.9c0.9-3.2,1.5-6.5,1.8-9.8c0.2-2.5-0.1-5-0.9-7.3c-0.8-4.2-3.8-7.7-7.8-9.2  c-4.8-1.2-9.8-1.5-14.7-0.9c-0.6,11.2-0.5,22.5,0.4,33.7L816.5,727.1L816.5,727.1L816.5,727.1L816.5,727.1L816.5,727.1L816.5,727.1  L816.5,727.1L816.5,727.1L816.5,727.1z M698.3,733c0,4.7,0.2,9.4,0.7,14c0.8,5.4,2.7,10.5,5.4,15.2c1.8,2.9,4.5,5.1,7.6,6.4  c5.9,2.3,12.5,2.8,18.7,1.5c7.1-1.3,12.8-6.4,15.1-13.2c2-5.3,3.1-11,3.3-16.7c0.5-7.2,0.4-14.4-0.5-21.5c-0.6-4-1.5-7.9-2.7-11.7  c-1.9-6-6.2-10.9-11.9-13.5c-3.6-1.6-7.5-2.3-11.4-2c-9-0.2-17.1,5.2-20.3,13.6c-2.5,5.9-3.8,12.3-3.8,18.7  C698.3,726.6,698.3,729.2,698.3,733L698.3,733L698.3,733L698.3,733L698.3,733L698.3,733L698.3,733L698.3,733L698.3,733L698.3,733z   M88.3,732.8c0.3,4.1,0,9.2,0.7,14.2c0.8,5.4,2.7,10.6,5.4,15.3c1.8,2.9,4.4,5.2,7.5,6.5c6,2.2,12.5,2.8,18.8,1.7  c7-1.6,12.6-6.6,15.1-13.4c2.2-6.2,3.3-12.7,3.4-19.2c0.3-6.2,0.1-12.4-0.5-18.5c-0.5-4.3-1.5-8.5-2.9-12.5  c-1.9-5.8-6.2-10.6-11.8-13.1c-5.2-2.2-10.9-2.7-16.3-1.4c-7.2,1.3-13.1,6.3-15.6,13.2c-2.5,5.9-3.7,12.3-3.7,18.7  c0.1,2.4,0.1,4.9,0.1,8.2L88.3,732.8L88.3,732.8L88.3,732.8L88.3,732.8L88.3,732.8L88.3,732.8L88.3,732.8z M516.1,746.9h1.9v24.5  h-34.8c-11.5,0-23,0-34.5-0.5c1.7-1.9,3.7-1.1,5.7-1.2c2.1-0.1,4.2,0,6.2,0l0.4-0.5c0-0.1,0-0.2,0-0.4c0-24.4,0-48.8,0-73  c0-0.7,0-1.4,0-2.2c-4.2-0.8-8.4,0.3-13.4-0.9c0.7-0.5,1.5-0.8,2.3-1.1c1.1-0.1,2.3-0.1,3.4,0h60.1c0.5,3.2,0.6,6.5,0.4,9.7  c0,3.1,0,6.2,0,9.4l-1.9,0.6l-1.5-2.9c-1.5-3-2.9-6.1-4.6-8.9c-2.1-2.9-5.3-4.8-8.9-5.2c-7.8-1.1-15.8-1.4-23.7-1v33.7  c4,0.5,8,0.5,12,0c3.9-0.9,7-3.8,8.1-7.7l3.1-8.8c0.7,1.1,1.1,1.4,1.1,1.8c0,11.2,0,22.4,0,33.5c0,0.3-0.2,0.5-0.5,1.1  c-0.6-0.5-1-1.1-1.4-1.7c-0.6-1.4-1-2.9-1.3-4.4c-0.6-4.7-3.7-8.7-8.2-10.3c-0.4-0.2-0.7-0.3-1-0.5h-11.5  c-0.8,13.3-0.8,26.5-0.3,39.8h5.4c4.1,0,8.2,0,12.3,0c2.9,0,5.9-0.4,8.7-1c4.3-1.3,8.1-4.1,10.6-8c2.4-3,3.9-6.5,4.5-10.3  C515,749.3,515.5,748.1,516.1,746.9L516.1,746.9L516.1,746.9L516.1,746.9L516.1,746.9z M216.2,748.8c-2.3-2.4-2.1-5-2.8-7.3  c-1-4.5-4.2-8.1-8.5-9.6c-1.1-0.3-2.2-0.4-3.3-0.4c-3,0-5.9,0-8.8,0c-0.7,12.7-0.8,25.4-0.2,38.1c4,0.3,8.2,0,12.3,0.2v1  c-0.5,0.3-1,0.5-1.6,0.7h-34c-0.7,0-1.3-0.3-1.7-0.8c4-1.6,8.2-0.4,12.4-1.1v-75.9c-4.2-0.8-8.4,0.5-12.5-1.5  c0.8-0.3,1.7-0.4,2.5-0.5h62.8c0,6.6,0,12.9,0,19.3l-2,0.4c-0.5-1-0.9-2.1-1.4-3c-1.4-3-3-6-4.7-8.8c-2.2-2.8-5.4-4.7-8.9-5.1  c-7.4-0.9-14.9-1.2-22.3-0.9c-0.3,0-0.6,0-0.8,0c-0.8,11.6-0.9,23.3-0.3,35c4.9,0.9,9.9,0.7,14.7-0.7c3.3-2.3,5.5-5.8,6.3-9.7  c0.6-2.1,1.4-4.1,2.3-6.1c0.6,1.3,1,1.7,1,2.2c0,11,0,22,0,33C216.5,747.6,216.4,748.2,216.2,748.8L216.2,748.8L216.2,748.8  L216.2,748.8z M340.3,712.7l-2.2-5.6c-1.3-3.4-3.3-6.5-5.8-9.1c-2.4-2.4-5.6-3.8-9-3.9c-3-0.2-6.1-0.7-9.1-1  c-0.9,3.4-1.2,66.1-0.4,76.4c4.1,0.5,8.2,0,13.3,0.4c-1.1,0.9-1.5,1.4-1.8,1.4c-11.8,0-23.5,0-35.2,0c-0.3,0-0.7-0.4-1.4-0.8  c2.2-1.5,4.3-0.7,6.2-0.8c1.9-0.1,4.2,0,6.3,0c0.7-3.3,0.9-69.6,0.3-76.3c-2.3-0.2-4.7-0.1-6.9,0.5c-1.7,0.2-3.3,0.4-5,0.5  c-4.3,1.1-7.9,3.9-9.9,7.9c-1.6,2.9-2.7,6.1-4.1,9.2c-0.2,0.4-0.4,0.9-0.9,2.2c-1-3.6-1.3-7.3-0.9-11c0-3.7,0-7,0-10.5  c3.4-0.7,59.4-1,67.5-0.4C341.9,698.7,341.6,705.8,340.3,712.7L340.3,712.7L340.3,712.7z M899.5,692.2c-4,1.6-8.2,0.3-12.4,1.1  v75.8c0.9,0.1,1.8,0.2,2.7,0.3c4.9,0,9.9,0.2,14.9,0c3.2-0.3,6.3-0.8,9.4-1.6c4.7-1.3,8.7-4.5,11-8.8c2-3.2,3.5-6.7,4.4-10.3  c0.3-1.2,0.7-2.1,2.1-2c0.6,8.1,0.7,16.3,0.2,24.5c-5.7,0-11.5,0-17.2,0h-51.3v-0.9c0.5-0.3,1-0.8,1.5-0.8c3.4,0,6.7,0,10.3,0v-76  c-3.7-1.1-7.8,0.4-11.7-0.9c0.3-0.5,0.4-1,0.5-1C875.7,691.1,887.6,691.3,899.5,692.2L899.5,692.2z M758.5,270.2h-22.9  c-1.9-1.9-1.9-1.9-0.4-4.3h55.4c3,0,6,0,9.1,0c3,0,6.2,0,9.3,0c4.7,0.2,9.4,0.8,14.1,1.8c5.6,1.5,10.7,4.4,14.9,8.3  c5.2,4.2,9,9.8,11,16.1c3.3,10,1.3,21.1-5.3,29.3c-5.4,6.6-12.9,11.3-21.3,13.2c-2,0.5-4,1.1-5.9,1.9c5,0.9,9.9,2.3,14.7,4.1  c7.6,2.8,14.2,7.8,18.9,14.5c1.9,3.1,3.2,6.5,3.7,10.1c1.2,6.7,1.4,13.6,1.9,20.4s0,14.7,3.2,21.4c1.1,2.4,2.3,4.8,3.7,7  c2.9,2.9,7.1,3.9,11,2.6c2.6-0.9,5.1-2.2,8.1-3.7l2.1,1.9c-0.2,0.5-0.3,0.9-0.4,1c-7.2,5-16.2,6.6-24.8,4.7c-1.4,0-2.8-0.1-4.2-0.3  c-4.5-1.1-8.7-3.3-12.2-6.3c-3.5-3.5-5.8-8-6.7-12.9c-1-4.8-1.7-9.7-2-14.7c-0.3-3.7-0.2-7.3-0.8-11c-0.4-6-1.2-11.9-2.4-17.8  c-2-8.7-8.6-15.6-17.1-18c-0.5-0.2-1.1-0.3-1.6-0.4c-6.4-0.8-12.9-1.1-19.3-0.8h-10.5l-0.4,0.4c-0.1,0.1-0.2,0.2-0.2,0.4  c0,1,0,2,0,3c0,24.3,0,48.7,0,73.3h23.6v3.3h-69.3l-1.3-2.5c0.7-0.4,1.1-0.7,1.4-0.7h17.8h4.9l0.4-0.4c0-0.1,0-0.2,0-0.4  c0-47.3,0-94.6,0-141.9C758.5,272.6,758.5,271.6,758.5,270.2L758.5,270.2L758.5,270.2L758.5,270.2L758.5,270.2L758.5,270.2  L758.5,270.2L758.5,270.2L758.5,270.2L758.5,270.2L758.5,270.2L758.5,270.2L758.5,270.2L758.5,270.2L758.5,270.2L758.5,270.2  L758.5,270.2L758.5,270.2L758.5,270.2L758.5,270.2L758.5,270.2L758.5,270.2L758.5,270.2L758.5,270.2L758.5,270.2L758.5,270.2  L758.5,270.2z M415.5,532.6c0,1.1,0,2.3,0,3.4c0,10.8-2.5,21.4-7.3,31c-2.6,5.6-5.7,10.9-9.4,15.9c-4.3,5.8-9.3,10.9-15.1,15.2  c-6.9,5.3-14.6,9.4-22.9,12.1c-3.9,1.1-7.8,2-11.8,2.6c-3.6,0.6-7.3,0.8-11,0.5c-9.1-0.3-18-2.4-26.2-6.3c-4.3-2-8.5-4.4-12.4-7.1  c-5.6-4.2-10.7-9-15.3-14.4c-3.6-4.3-6.7-9-9.2-14c-3.3-6.3-5.7-13-7.3-19.9c-1.2-6.3-1.8-12.8-1.8-19.2c0.1-20.5,8.1-40.2,22.4-55  c5-5.2,10.5-9.8,16.4-13.9c7.2-4.5,15.1-7.9,23.3-9.9c6.7-1.6,13.7-1.9,20.6-0.8c12.5,1.5,24.4,6.5,34.3,14.3  c3.1,2.3,6,4.7,8.7,7.3c4,4,7.5,8.3,10.6,13c5.9,8.8,10.1,18.7,12.3,29.1c0.7,5.3,1.2,10.6,1.4,15.9L415.5,532.6L415.5,532.6  L415.5,532.6L415.5,532.6L415.5,532.6L415.5,532.6L415.5,532.6L415.5,532.6L415.5,532.6L415.5,532.6L415.5,532.6L415.5,532.6  L415.5,532.6L415.5,532.6L415.5,532.6L415.5,532.6L415.5,532.6L415.5,532.6L415.5,532.6L415.5,532.6L415.5,532.6L415.5,532.6  L415.5,532.6L415.5,532.6L415.5,532.6L415.5,532.6z M510.6,224.4h23.6v3.2h-46.2l-0.4-2.7c0.4-0.2,0.8-0.4,1.2-0.5h13.2h4.4  l58-153.6h5.6c0.6,0.8,1.1,1.7,1.6,2.6c3.7,9.4,7,18.8,10.5,28.1c2.6,6.9,5.3,13.8,7.9,20.7l8,21l8.1,21.5l8.2,21.4  c3.1,8.2,6.3,16.4,9.4,24.6c1.7,4.4,3.3,8.8,5.1,13.5h19.3l0.3,2.9c-0.9,0.9-58,1.2-66.9,0.4l-0.2-3c2.6-0.3,5.1-0.3,7.7-0.2  c2.4,0,4.8,0,7.3,0h7.5c-1.2-6.9-3.3-13.5-6.4-19.8c-2.7-6.6-5.1-13.2-7.6-19.9c-2.5-6.6-4.9-13-7.3-19.6h-49.5L510.6,224.4  L510.6,224.4L510.6,224.4L510.6,224.4L510.6,224.4L510.6,224.4L510.6,224.4L510.6,224.4L510.6,224.4L510.6,224.4L510.6,224.4  L510.6,224.4L510.6,224.4L510.6,224.4L510.6,224.4L510.6,224.4z M956.4,693.4c-4.3,0-8.7-0.3-13-0.7c0.5-0.4,1.1-0.8,1.6-1.2  c0.4-0.1,0.8-0.1,1.2,0c5.6,0,11.3,0,17,0s11.2-0.8,16.8-0.7c7.7,0,15.3,1.5,22.3,4.6c7.3,3.1,13.2,8.7,16.9,15.7  c3,6,4.6,12.6,4.6,19.3c0.2,4.8-0.4,9.5-1.6,14.1c-1.3,4-3.1,7.8-5.4,11.3c-5.5,8.4-13.9,12.3-23,15.2c-1.9,0.5-3.8,0.8-5.8,0.8  c-6.2,0-12.3,0-18.5,0c-1.2,0-2.5-0.4-3.7-0.4h-18.7c-1,0-2.1-0.2-4.1-0.4c2-1.3,4.4-1.7,6.7-1.3c2.1,0,4.2,0,6.3,0  C956.7,766.4,956.9,701.2,956.4,693.4L956.4,693.4L956.4,693.4L956.4,693.4L956.4,693.4L956.4,693.4L956.4,693.4L956.4,693.4  L956.4,693.4L956.4,693.4z M802.1,729.8v39.6c4.2,0.8,8.4-0.4,13.3,1c-1.2,0.6-1.6,1-2,1h-34.8c-0.6-0.1-1.1-0.3-1.6-0.5  c0.8-0.5,1.2-1.1,1.7-1.1c3.7,0,7.3,0,11,0v-76.3c-4.2-0.3-8.4,0-12.4-0.3v-1c0.5-0.3,1.1-0.5,1.6-0.5c3.7,0,7.3-0.2,11,0  c7.1,0.4,14-1.2,21-0.7c4.5,0,8.9,0.5,13.2,1.6c6.7,1.8,11.9,6.9,13.7,13.6c1.6,5.9-0.3,12.2-4.9,16.3c-3.2,2.9-7.1,4.8-11.4,5.5  c0.6,0.5,1.3,0.8,2,1.1c5.3,1,10.1,3.7,13.5,7.8c0.8,0.9,1.5,2,1.9,3.2c1.1,3.2,1.7,6.5,1.8,9.8c-0.2,4.2,0.1,8.4,1,12.5  c0.6,1.9,1.3,3.8,2.3,5.5c3.9,4,7.3,0.4,11.5,0c-1.1,2.5-3.5,4.1-6.2,4.2c-2.8,0.4-5.7,0.4-8.5,0c-5.7-0.5-10.2-4.8-11-10.4  c-0.6-2.9-0.3-5.9-1-8.7c-1.1-4.3-0.4-8.6-1.5-12.9c-1.2-6.1-6.7-10.5-12.9-10.4C810.5,729.8,806.5,729.8,802.1,729.8L802.1,729.8  L802.1,729.8L802.1,729.8L802.1,729.8L802.1,729.8L802.1,729.8L802.1,729.8L802.1,729.8z M723.5,773.1c-9.8,0.3-19.3-3.6-26.2-10.7  c-6.5-6.2-10.9-14.4-12.5-23.3c-0.4-3.4-0.4-6.8-0.2-10.2c0.1-7.9,2.8-15.5,7.7-21.7c3-4.6,7-8.5,11.6-11.5  c4.8-3.1,10.2-5.2,15.8-6.2c4.8-0.5,9.7-0.1,14.3,1.3c4.3,1.2,8.3,3.3,11.8,6.2c7.5,5.7,13,13.7,15.4,22.9  c1.8,5.9,2.1,12.2,0.9,18.3c-0.6,3-1.3,5.9-2.3,8.8c-1.4,3.8-3.4,7.4-5.9,10.5c-3.6,4.7-8.1,8.6-13.3,11.5  C735.4,772,729.5,773.4,723.5,773.1L723.5,773.1L723.5,773.1L723.5,773.1L723.5,773.1L723.5,773.1L723.5,773.1L723.5,773.1z   M113.6,773.1c-9.9,0.3-19.4-3.6-26.3-10.7c-6.5-6.2-10.9-14.4-12.5-23.2c-0.3-3-0.4-5.9-0.2-8.9c-0.1-10.3,4-20.3,11.3-27.6  c4.2-4.6,9.3-8.2,14.9-10.7c2.5-1.2,5.2-1.9,8-2.2c1.8-0.4,3.6-0.6,5.4-0.7c3.3,0.2,6.6,0.8,9.8,1.8c5.9,1.9,11.2,5.1,15.7,9.4  c6.4,6.4,10.7,14.5,12.4,23.3c1.4,6.9,1,14-1.2,20.7c-1.9,6-5.1,11.5-9.5,16.1c-4.8,5.2-10.7,9.1-17.4,11.4  C120.7,772.8,117.1,773.3,113.6,773.1L113.6,773.1L113.6,773.1L113.6,773.1L113.6,773.1L113.6,773.1L113.6,773.1z M5.2,855.5h4.2  h1083.9c0.1,0,0.2,0,0.4,0c0.2-0.2,0.4-0.3,0.5-0.5c0-1.1,0-2.3,0-3.7c0-281.7,0-563.5,0-845.2c0-0.1,0-0.2,0-0.4  c-0.1-0.2-0.3-0.4-0.5-0.5h-3.7H6.1c-0.1,0-0.2,0-0.4,0C5.6,5.3,5.5,5.5,5.3,5.6L5.2,855.5L5.2,855.5L5.2,855.5L5.2,855.5  L5.2,855.5L5.2,855.5L5.2,855.5L5.2,855.5L5.2,855.5L5.2,855.5L5.2,855.5L5.2,855.5L5.2,855.5L5.2,855.5L5.2,855.5L5.2,855.5  L5.2,855.5L5.2,855.5L5.2,855.5L5.2,855.5L5.2,855.5L5.2,855.5L5.2,855.5L5.2,855.5L5.2,855.5L5.2,855.5L5.2,855.5L5.2,855.5  L5.2,855.5z M0,860.6V0h1099.3v860.6H0L0,860.6L0,860.6L0,860.6L0,860.6L0,860.6L0,860.6L0,860.6L0,860.6L0,860.6L0,860.6L0,860.6  L0,860.6L0,860.6L0,860.6L0,860.6L0,860.6L0,860.6L0,860.6L0,860.6L0,860.6L0,860.6L0,860.6L0,860.6L0,860.6L0,860.6L0,860.6  L0,860.6L0,860.6L0,860.6z M1024.6,664.8v16.9h-2.2v-16.9h-6v-1.9h14.1v1.9H1024.6L1024.6,664.8z M1043.5,681.7h-1.8l-6.4-16.7  h-0.1l0,0c0.1,1.3,0.2,2.9,0.2,4.7l0,0v12h-2v-18.8h3.3l6,15.5h0.1l6-15.5h3.3v18.8h-2.2v-12.1l0,0c0-1.4,0.1-2.9,0.2-4.5l0,0h-0.1  L1043.5,681.7L1043.5,681.7z"></path></g></svg>